HIERARCHY
ROOT Hips
{
	OFFSET -0.001795 -0.223333 0.028219
	CHANNELS 6 Xposition Yposition Zposition Zrotation Yrotation Xrotation 
	JOINT LeftUpLeg
	{
		OFFSET 0.069520 -0.091406 -0.006815
		CHANNELS 3 Zrotation Yrotation Xrotation
		JOINT LeftLeg
		{
			OFFSET 0.034277 -0.375199 -0.004496
			CHANNELS 3 Zrotation Yrotation Xrotation
			JOINT LeftFoot
			{
				OFFSET -0.013596 -0.397961 -0.043693
				CHANNELS 3 Zrotation Yrotation Xrotation
				JOINT LeftToe
				{
					OFFSET 0.026358 -0.055791 0.119288
					CHANNELS 3 Zrotation Yrotation Xrotation
					End Site
					{
						OFFSET 0.000000 0.000000 0.000000
					}
				}
			}
		}
	}
	JOINT RightUpLeg
	{
		OFFSET -0.067670 -0.090522 -0.004320
		CHANNELS 3 Zrotation Yrotation Xrotation
		JOINT RightLeg
		{
			OFFSET -0.038290 -0.382569 -0.008850
			CHANNELS 3 Zrotation Yrotation Xrotation
			JOINT RightFoot
			{
				OFFSET 0.015774 -0.398415 -0.042312
				CHANNELS 3 Zrotation Yrotation Xrotation
				JOINT RightToe
				{
					OFFSET -0.025372 -0.048144 0.123348
					CHANNELS 3 Zrotation Yrotation Xrotation
					End Site
					{
						OFFSET 0.000000 0.000000 0.000000
					}
				}
			}
		}
	}
	JOINT Spine
	{
		OFFSET -0.002533 0.108963 -0.026696
		CHANNELS 3 Zrotation Yrotation Xrotation
		JOINT Spine1
		{
			OFFSET 0.005487 0.135180 0.001092
			CHANNELS 3 Zrotation Yrotation Xrotation
			JOINT Spine2
			{
				OFFSET 0.001457 0.052922 0.025425
				CHANNELS 3 Zrotation Yrotation Xrotation
				JOINT Neck
				{
					OFFSET -0.002778 0.213870 -0.042857
					CHANNELS 3 Zrotation Yrotation Xrotation
					JOINT Head
					{
						OFFSET 0.005152 0.064970 0.051349
						CHANNELS 3 Zrotation Yrotation Xrotation
						End Site
						{
							OFFSET 0.000000 0.000000 0.000000
						}
					}
				}
				JOINT LeftShoulder
				{
					OFFSET 0.078845 0.121749 -0.034090
					CHANNELS 3 Zrotation Yrotation Xrotation
					JOINT LeftArm
					{
						OFFSET 0.090977 0.030469 -0.008868
						CHANNELS 3 Zrotation Yrotation Xrotation
						JOINT LeftForeArm
						{
							OFFSET 0.259612 -0.012772 -0.027456
							CHANNELS 3 Zrotation Yrotation Xrotation
							JOINT LeftHand
							{
								OFFSET 0.249234 0.008986 -0.001171
								CHANNELS 3 Zrotation Yrotation Xrotation
								End Site
								{
									OFFSET 0.000000 0.000000 0.000000
								}
							}
						}
					}
				}
				JOINT RightShoulder
				{
					OFFSET -0.081759 0.118833 -0.038615
					CHANNELS 3 Zrotation Yrotation Xrotation
					JOINT RightArm
					{
						OFFSET -0.096012 0.032551 -0.009143
						CHANNELS 3 Zrotation Yrotation Xrotation
						JOINT RightForeArm
						{
							OFFSET -0.253742 -0.013329 -0.021401
							CHANNELS 3 Zrotation Yrotation Xrotation
							JOINT RightHand
							{
								OFFSET -0.255298 0.007772 -0.005559
								CHANNELS 3 Zrotation Yrotation Xrotation
								End Site
								{
									OFFSET 0.000000 0.000000 0.000000
								}
							}
						}
					}
				}
			}
		}
	}
}
MOTION
Frames: 9
Frame Time: 0.050000
0.000000 0.948657 0.000000 0.401966 1.640045 4.573324 3.246709 -0.176592 -1.441692 -0.949699 0.250276 -5.992680 1.321883 6.463943 10.310186 0.000000 0.000000 0.000000 -2.963840 0.341480 -3.299589 -2.439655 0.082789 -2.919670 0.956231 -1.761951 8.992194 0.000000 0.000000 0.000000 5.225787 0.219683 -4.112035 -1.625045 0.821141 -3.742706 -4.814165 2.744809 6.364389 6.107227 -2.680618 -12.545960 0.000000 0.000000 0.000000 -17.021838 -2.580475 -1.280606 -55.535111 -4.346988 -4.660377 -4.949997 -19.946937 1.470977 0.000000 0.000000 0.000000 14.789624 -6.734818 -3.882739 64.790120 3.074883 -4.467405 5.026504 26.774174 2.358362 0.000000 0.000000 0.000000 
0.000279 0.947546 0.000879 0.342769 1.132204 5.099904 3.169154 -0.165866 -1.259701 -0.732091 0.267762 -7.013429 1.579002 6.729332 9.915495 0.000000 0.000000 0.000000 -3.368870 0.398986 -3.993397 -1.934207 0.074061 -2.311648 0.994491 -1.607022 8.667235 0.000000 0.000000 0.000000 6.548196 0.266578 -4.559070 -2.532290 1.206479 -3.678600 -6.007289 3.414054 5.691543 6.398413 -2.676696 -13.272698 0.000000 0.000000 0.000000 -17.646664 -2.383706 -1.633558 -54.561511 -4.185096 -4.526187 -4.185970 -19.358029 1.270414 0.000000 0.000000 0.000000 14.769557 -8.060060 -4.468394 66.194354 1.679436 -5.173087 4.845866 26.528580 2.322702 0.000000 0.000000 0.000000 
0.000318 0.947392 0.001332 0.759713 1.349418 5.179231 2.904382 -0.180677 -1.537265 -0.897312 0.247189 -5.936912 1.250820 6.159656 9.795671 0.000000 0.000000 0.000000 -3.786878 0.399399 -4.032273 -2.074594 0.083095 -2.378141 0.515699 -2.652253 8.854305 0.000000 0.000000 0.000000 6.070079 0.259834 -4.576942 -2.394052 1.152949 -4.656002 -6.264122 2.726828 6.202623 5.303044 -2.096283 -12.805678 0.000000 0.000000 0.000000 -17.486662 -2.710361 -1.301967 -54.718766 -4.015413 -4.689175 -3.467146 -18.421039 1.121260 0.000000 0.000000 0.000000 15.704665 -6.999051 -4.109723 64.927705 1.630631 -5.278495 5.141862 25.569403 2.253892 0.000000 0.000000 0.000000 
0.000194 0.947857 0.001883 0.902694 1.505902 5.169114 2.889101 -0.182846 -1.563138 -0.930691 0.250540 -6.029233 0.813108 5.441296 9.830464 0.000000 0.000000 0.000000 -3.976448 0.414222 -4.283572 -2.261559 0.097167 -2.419369 0.520831 -2.739142 9.165503 0.000000 0.000000 0.000000 6.287522 0.268305 -4.647696 -2.741228 1.300688 -4.057578 -6.423798 2.273802 5.087646 5.113255 -2.113084 -11.909015 0.000000 0.000000 0.000000 -17.628956 -2.311245 -1.493721 -55.131100 -3.832003 -4.706382 -2.016176 -18.363448 0.886136 0.000000 0.000000 0.000000 14.767195 -7.235332 -4.198823 65.554550 0.881228 -5.592580 5.805528 25.470582 2.342494 0.000000 0.000000 0.000000 
-0.000067 0.948381 0.002324 1.034592 1.867090 5.092458 2.712196 -0.162746 -1.290226 -0.798399 0.250308 -6.336591 0.543842 5.020050 9.833089 0.000000 0.000000 0.000000 -3.983053 0.403333 -4.170743 -2.509816 0.115272 -2.493206 0.109564 -3.489589 9.012291 0.000000 0.000000 0.000000 5.927728 0.243646 -4.436815 -2.451785 1.181319 -4.179428 -6.628056 1.910274 5.110566 4.496151 -1.728750 -11.834290 0.000000 0.000000 0.000000 -17.897061 -2.404196 -1.451283 -54.842659 -4.124217 -4.543699 -2.089798 -18.056140 0.889064 0.000000 0.000000 0.000000 14.768382 -7.047439 -4.125051 65.375390 0.791071 -5.645305 5.686093 24.639210 2.217718 0.000000 0.000000 0.000000 
-0.000306 0.948814 0.002712 1.166510 1.873577 5.057012 2.592968 -0.154405 -1.202621 -0.617367 0.241097 -6.316487 0.550507 5.021977 9.800965 0.000000 0.000000 0.000000 -4.053885 0.406882 -4.241699 -2.821533 0.139179 -2.532269 0.025442 -3.793438 9.391232 0.000000 0.000000 0.000000 5.855449 0.242641 -4.425514 -2.499732 1.202053 -4.167877 -6.664697 1.707347 5.146765 4.307337 -1.632352 -11.755561 0.000000 0.000000 0.000000 -18.270140 -2.429586 -1.440871 -54.539431 -4.299784 -4.431424 -1.837971 -18.138728 0.860419 0.000000 0.000000 0.000000 14.346059 -6.753272 -3.959939 65.706385 0.680862 -5.735869 5.504445 24.157909 2.117148 0.000000 0.000000 0.000000 
-0.000437 0.948995 0.002979 1.172019 1.942965 4.936492 2.498166 -0.143209 -1.073451 -0.579513 0.238825 -6.304102 0.534764 5.080254 10.032839 0.000000 0.000000 0.000000 -3.882798 0.393539 -4.050491 -3.060682 0.160190 -2.526982 0.048601 -3.715226 9.321841 0.000000 0.000000 0.000000 5.696721 0.225888 -4.230356 -2.413962 1.166875 -4.196898 -6.778655 1.416981 5.185066 4.315980 -1.581534 -12.305479 0.000000 0.000000 0.000000 -18.272302 -2.269919 -1.467518 -54.542679 -4.114778 -4.527194 -2.337884 -18.367656 0.957770 0.000000 0.000000 0.000000 14.184995 -6.765412 -3.983771 65.909595 0.395645 -5.927333 5.643753 24.090796 2.124954 0.000000 0.000000 0.000000 
-0.000466 0.949033 0.003256 1.140167 2.088380 4.937158 2.402100 -0.141184 -1.064984 -0.467200 0.227812 -6.121702 0.750711 5.361869 9.726973 0.000000 0.000000 0.000000 -3.850071 0.392048 -4.041592 -3.140876 0.178333 -2.370202 0.063799 -3.623330 9.196138 0.000000 0.000000 0.000000 5.732164 0.229174 -4.272520 -2.472979 1.193931 -4.259441 -6.835445 1.194807 5.385408 4.162142 -1.498962 -12.289688 0.000000 0.000000 0.000000 -18.352592 -2.343183 -1.398044 -54.189268 -3.915354 -4.603556 -3.200420 -18.863314 1.130316 0.000000 0.000000 0.000000 14.157646 -6.866702 -4.050112 65.905003 0.221643 -6.056161 5.761801 23.915998 2.125518 0.000000 0.000000 0.000000 
-0.000450 0.949079 0.003623 1.175030 2.160671 4.830851 2.328975 -0.128178 -0.904971 -0.492659 0.230507 -6.180125 0.784559 5.451601 9.803299 0.000000 0.000000 0.000000 -3.856343 0.374229 -3.795639 -3.058286 0.159082 -2.560195 -0.086019 -3.949269 9.272751 0.000000 0.000000 0.000000 5.702292 0.226409 -4.225354 -2.475856 1.196128 -4.222715 -6.908977 1.133716 5.370621 3.940604 -1.353884 -12.292725 0.000000 0.000000 0.000000 -18.136773 -2.350417 -1.366256 -54.424030 -3.958810 -4.612252 -3.868758 -19.082013 1.253023 0.000000 0.000000 0.000000 14.065387 -7.001202 -4.106825 65.973768 -0.019151 -6.192897 5.940008 23.959679 2.164343 0.000000 0.000000 0.000000 
